<svg xmlns="http://www.w3.org/2000/svg" width="259.88855286396335" height="384.78031794014504" viewBox="0 0 3292 4874" version="1.1"><path d="M 1551.500 0.663 C 1395.498 8.060, 1255.186 36.486, 1104.500 91.221 C 1062.649 106.423, 1026.397 121.375, 999.696 134.448 C 867.031 199.399, 763.776 306.370, 698 446.999 C 640.236 570.500, 609.546 698.700, 602.004 848 C 600.733 873.163, 600.733 953.837, 602.004 979 C 609.568 1128.733, 640.318 1256.883, 698.461 1380.974 C 764.002 1520.856, 867.357 1627.760, 999.696 1692.552 C 1053.968 1719.124, 1146.587 1752.820, 1224.500 1774.340 C 1324.939 1802.082, 1413.365 1817.059, 1524 1825.067 C 1547.226 1826.748, 1639.146 1827.411, 1666.500 1826.094 C 1766.553 1821.279, 1856.873 1807.830, 1952.500 1783.508 C 2041.617 1760.842, 2141.659 1725.448, 2209.500 1692.582 C 2403.365 1598.663, 2525.712 1440.529, 2569.404 1227.404 C 2582.656 1162.762, 2594.034 1063.126, 2597.999 977 C 2599.273 949.321, 2599.273 877.679, 2597.999 850 C 2594.034 763.874, 2582.656 664.238, 2569.404 599.596 C 2525.712 386.471, 2403.365 228.337, 2209.500 134.418 C 2167.832 114.232, 2118.992 94.958, 2057.500 74.434 C 1928.032 31.220, 1803.508 7.681, 1669.103 1.012 C 1651.251 0.126, 1568.026 -0.121, 1551.500 0.663 M 1592.500 542.700 C 1580.721 543.445, 1542.687 547.350, 1520.500 550.092 C 1461.214 557.420, 1430.909 563.481, 1395 575.192 C 1268.720 616.373, 1192.432 698.402, 1169.147 818.041 C 1158.174 874.419, 1158.174 952.581, 1169.147 1008.959 C 1194.014 1136.728, 1280.368 1222.431, 1422 1259.906 C 1451.813 1267.794, 1499.273 1275.153, 1561.500 1281.536 C 1590.833 1284.544, 1600.021 1284.668, 1637.500 1282.563 C 1671.022 1280.680, 1679.248 1279.881, 1706 1275.909 C 1840.299 1255.966, 1911.797 1222.200, 1967.609 1152.360 C 2002.654 1108.507, 2025.314 1058.899, 2035.377 1004 C 2040.103 978.217, 2041 963.774, 2041 913.500 C 2041 878.334, 2040.617 863.303, 2039.426 851.759 C 2033.387 793.236, 2015.256 742.923, 1983.344 696.140 C 1930.292 618.364, 1864.736 580.249, 1745 557.566 C 1704.567 549.906, 1677.423 546.636, 1637 544.555 C 1620.775 543.720, 1605.250 542.890, 1602.500 542.710 C 1599.750 542.530, 1595.250 542.526, 1592.500 542.700 M 696.168 3274.861 C 694.289 3275.384, 693.295 3277.164, 691.057 3284.005 C 673.284 3338.330, 646.407 3366.940, 611.500 3368.695 C 598.359 3369.355, 589.301 3367.429, 577.007 3361.359 C 568.834 3357.323, 566.111 3355.269, 557.429 3346.586 C 542.732 3331.887, 533.563 3316.974, 522.947 3290.500 C 518.030 3278.237, 517.033 3276.470, 514.916 3276.256 C 513.032 3276.067, 509.696 3278.710, 499.773 3288.256 L 487.046 3300.500 490.446 3310.183 C 508.184 3360.703, 531.711 3397.542, 559.500 3418.309 C 569.866 3426.056, 584.934 3433.336, 597.500 3436.667 C 606.422 3439.033, 609.333 3439.321, 624.500 3439.342 C 639.697 3439.363, 642.520 3439.090, 651.119 3436.773 C 669.924 3431.706, 684.721 3423.194, 699.392 3409.001 C 714.290 3394.589, 725.829 3376.589, 734.402 3354.392 C 738.221 3344.503, 743.980 3323.135, 743.992 3318.809 C 743.999 3316.593, 740.099 3312.440, 721.932 3295.309 C 709.794 3283.864, 699.556 3274.435, 699.182 3274.355 C 698.807 3274.275, 697.451 3274.503, 696.168 3274.861 M 2288.301 3278.066 C 2222.521 3284.433, 2175.635 3319.809, 2161.251 3373.926 C 2157.761 3387.054, 2157.544 3409.412, 2160.790 3421.244 C 2164.638 3435.267, 2171.421 3448.597, 2182.039 3463 L 2189.042 3472.500 1961.189 3472.752 L 1733.336 3473.004 1730.144 3477.449 L 1726.952 3481.894 1741.718 3511.447 L 1756.484 3541 1871.742 3541 L 1987 3541 1987 3560 L 1987 3579 1947.750 3579.022 C 1868.623 3579.067, 1840.757 3582.184, 1817.112 3593.633 C 1800.303 3601.772, 1789.544 3615.003, 1785.426 3632.600 C 1782.885 3643.458, 1783.829 3663.081, 1787.394 3673.500 C 1793.979 3692.746, 1806.336 3712.313, 1824.548 3732.331 C 1839.676 3748.961, 1852.826 3759.881, 1864.500 3765.507 C 1877.492 3771.769, 1886.142 3773.395, 1902.903 3772.725 C 1919.871 3772.046, 1934.529 3769.306, 1974 3759.436 C 1997.491 3753.562, 2006.711 3751.687, 2014.122 3751.277 C 2022.990 3750.787, 2023.912 3750.912, 2025.872 3752.872 C 2028.578 3755.578, 2028.649 3760.735, 2026.095 3768.943 C 2022.963 3779.006, 2016.546 3788.584, 2005.566 3799.585 C 1991.140 3814.039, 1971.696 3826.365, 1952.365 3833.310 L 1945.230 3835.874 1942.865 3833.338 C 1941.564 3831.943, 1937.800 3828.679, 1934.500 3826.083 C 1915.065 3810.795, 1894.333 3803.984, 1867.343 3804.017 C 1834.698 3804.058, 1818.639 3813.424, 1817.216 3833.253 C 1815.538 3856.617, 1838.232 3893.961, 1861.531 3906.176 C 1874.755 3913.109, 1888.972 3915.049, 1912.259 3913.099 C 1919.826 3912.465, 1927.251 3911.728, 1928.759 3911.461 C 1931.380 3910.996, 1931.719 3911.442, 1936.500 3921.662 C 1967.336 3987.574, 2017.531 4023.962, 2077.656 4023.994 L 2088.812 4024 2090.474 4019.250 C 2095.975 4003.524, 2115.959 3943.641, 2115.751 3943.505 C 2115.613 3943.415, 2106.050 3942.812, 2094.500 3942.164 C 2046.527 3939.473, 2014.176 3930.986, 1989 3914.487 C 1979.731 3908.412, 1975.124 3904.278, 1977 3903.719 C 1993.278 3898.869, 2009.120 3893.015, 2018.155 3888.511 C 2058.319 3868.488, 2082.763 3839.762, 2087.050 3807.547 C 2090.459 3781.931, 2078.955 3749.854, 2054.712 3717.381 C 2041.578 3699.787, 2029.232 3689.886, 2013.490 3684.324 C 2005.838 3681.620, 2004.738 3681.501, 1987.500 3681.532 C 1966.966 3681.568, 1963.531 3682.097, 1916.500 3692.466 C 1900.550 3695.982, 1884.018 3699.402, 1879.762 3700.065 C 1870.153 3701.562, 1858.976 3700.869, 1855.448 3698.558 C 1849.779 3694.843, 1848.654 3685.518, 1852.878 3677.240 C 1855.461 3672.177, 1864.500 3663.794, 1870.842 3660.580 C 1888.706 3651.528, 1928.361 3648.062, 2014.564 3648.019 L 2052.628 3648 2056.049 3643.434 L 2059.470 3638.869 2059.132 3589.934 L 2058.794 3541 2118.508 3541 L 2178.222 3541 2177.627 3581.250 C 2177.300 3603.387, 2176.913 3685.157, 2176.766 3762.960 L 2176.500 3904.420 2211 3914.558 L 2245.500 3924.696 2248.500 3922.468 L 2251.500 3920.239 2251.116 3730.620 L 2250.733 3541 2400.866 3541 L 2551 3541 2551 3561 L 2551 3581 2514.700 3581 C 2475.816 3581, 2458.268 3581.935, 2440 3584.979 C 2413.872 3589.333, 2397.339 3596.531, 2384.960 3608.941 C 2372.334 3621.599, 2367.669 3634.209, 2367.739 3655.500 C 2367.785 3669.647, 2370.307 3679.762, 2377.463 3694.500 C 2390.981 3722.340, 2423.894 3759.162, 2447 3772.292 C 2455.848 3777.321, 2462.967 3779, 2475.434 3779 C 2488.980 3779, 2498.512 3777.760, 2542 3770.337 C 2584.937 3763.009, 2600.495 3762.682, 2602.520 3769.064 C 2603.906 3773.429, 2599.845 3784.991, 2593.859 3793.722 C 2583.396 3808.982, 2564.785 3822.155, 2544.671 3828.534 C 2521.332 3835.937, 2491.725 3835.889, 2467.828 3828.411 C 2443.271 3820.725, 2423.816 3808.563, 2401.629 3787.024 C 2383.997 3769.908, 2368.220 3750.037, 2352.555 3725.215 C 2349.333 3720.108, 2346.327 3715.702, 2345.876 3715.423 C 2345.425 3715.144, 2338.406 3719.459, 2330.278 3725.012 C 2312.245 3737.331, 2312.025 3737.738, 2318.067 3747.610 C 2364.105 3822.827, 2420.457 3875.979, 2477.312 3897.812 C 2512.709 3911.405, 2551.695 3913.825, 2583 3904.372 C 2619.648 3893.305, 2648.081 3865.476, 2658.033 3830.933 C 2661.120 3820.219, 2661.768 3802.271, 2659.548 3788.994 C 2657.231 3775.142, 2654.124 3765.922, 2646.572 3750.500 C 2633.282 3723.357, 2620.306 3707.676, 2604.889 3700.127 C 2594.643 3695.111, 2587.952 3693.351, 2573.710 3691.927 C 2558.624 3690.419, 2541.396 3691.958, 2505.500 3698.022 C 2452.397 3706.992, 2439.909 3707.035, 2432.990 3698.270 C 2426.200 3689.668, 2438.685 3668.721, 2455.212 3660.988 C 2472.712 3652.799, 2490.837 3650.980, 2561.781 3650.289 L 2616.063 3649.760 2619.781 3645.221 L 2623.500 3640.682 2623.129 3590.835 L 2622.758 3540.989 2706.555 3541.244 L 2790.351 3541.500 2794.124 3548.471 C 2805.468 3569.430, 2799.612 3591.003, 2778.728 3605.185 C 2764.754 3614.674, 2740.436 3624.065, 2711.606 3631.103 C 2698.017 3634.421, 2697.661 3634.578, 2695.356 3638.228 C 2694.060 3640.281, 2693 3642.680, 2693 3643.560 C 2693 3646.209, 2705.744 3677.530, 2712.912 3692.500 C 2744.589 3758.651, 2785.610 3800.422, 2834 3815.803 C 2850.643 3821.093, 2857.213 3822.122, 2878.042 3822.702 C 2909.137 3823.568, 2923.326 3820.523, 2950.344 3807.187 C 2950.808 3806.958, 2950.856 3828.872, 2950.451 3855.885 C 2950.046 3882.898, 2949.925 3905, 2950.182 3905 C 2950.438 3905, 2965.444 3909.275, 2983.526 3914.500 C 3001.609 3919.725, 3017.031 3924, 3017.798 3924 C 3018.564 3924, 3020.530 3923.047, 3022.166 3921.882 L 3025.140 3919.764 3024.563 3752.132 C 3024.245 3659.934, 3023.736 3574.713, 3023.432 3562.750 L 3022.880 3541 3075.060 3541 L 3127.239 3541 3126.639 3623.750 C 3126.308 3669.262, 3125.917 3751.017, 3125.769 3805.426 L 3125.500 3904.351 3160.113 3914.477 L 3194.726 3924.603 3197.906 3922.424 L 3201.085 3920.245 3201.053 3855.373 C 3201.035 3819.693, 3200.717 3734.368, 3200.348 3665.762 L 3199.676 3541.025 3237.041 3540.762 L 3274.406 3540.500 3277.300 3536.381 L 3280.194 3532.263 3265.673 3502.631 L 3251.152 3473 2743.668 3473 L 2236.184 3473 2233.980 3466.750 C 2230.931 3458.103, 2230.178 3441.265, 2232.367 3430.682 C 2239.863 3394.434, 2271.187 3366.073, 2315.456 3355.453 C 2320.980 3354.127, 2328.875 3352.563, 2333 3351.978 C 2342.882 3350.574, 2370.053 3350.602, 2382 3352.027 C 2440.428 3359, 2500.683 3389.612, 2564.732 3444.861 C 2585.122 3462.449, 2583.592 3462.504, 2595.689 3443.748 L 2604.879 3429.500 2594.087 3418.944 C 2553.647 3379.391, 2503.693 3341.979, 2459.500 3318.149 C 2402.290 3287.301, 2341.044 3272.961, 2288.301 3278.066 M 1981.246 3343.254 C 1965.161 3359.346, 1952 3372.963, 1952 3373.513 C 1952 3374.063, 1965.276 3387.783, 1981.502 3404.002 L 2011.004 3433.492 2040.750 3403.746 L 2070.496 3374 2040.494 3343.998 L 2010.492 3313.996 1981.246 3343.254 M 146.178 3467.110 C 123.288 3469.769, 95.471 3480.702, 71.707 3496.382 C 64.501 3501.136, 62.793 3502.754, 62.245 3505.342 C 61.878 3507.079, 61.675 3508.846, 61.795 3509.270 C 62.399 3511.403, 105.044 3575, 105.870 3575 C 106.401 3575, 110.294 3572.955, 114.521 3570.456 C 155.595 3546.172, 194.083 3535.131, 219.144 3540.443 C 234.484 3543.694, 241.530 3551.005, 242.693 3564.877 C 244.050 3581.063, 234.856 3596.156, 216.881 3607.250 C 206.457 3613.684, 201.582 3615.434, 184.051 3619.032 C 165.339 3622.872, 149.297 3627.181, 125.727 3634.697 L 107.954 3640.364 106.618 3644.932 C 105.299 3649.440, 105.328 3649.574, 108.891 3655.144 C 148.687 3717.380, 148.481 3717.075, 150.500 3716.632 C 151.600 3716.391, 158.744 3713.873, 166.375 3711.036 C 211.389 3694.303, 244.461 3692.719, 259.855 3706.559 C 266.459 3712.497, 269.222 3719.031, 269.768 3730 C 271.033 3755.432, 255.967 3777.903, 228.297 3791.854 C 196.996 3807.636, 154.147 3802.584, 121.809 3779.301 C 96.226 3760.881, 75.350 3733.030, 37.054 3666.227 C 34.365 3661.536, 32.461 3659.200, 31.692 3659.647 C 31.037 3660.028, 23.637 3665.017, 15.250 3670.733 C 2.023 3679.746, -0 3681.477, -0 3683.780 C -0 3686.861, 15.226 3715.787, 28.277 3737.500 C 78.578 3821.183, 128.734 3865.451, 188 3878.470 C 199.522 3881.001, 226.164 3881.580, 238.500 3879.567 C 285.002 3871.979, 319.562 3840.881, 328.591 3798.500 C 331.520 3784.748, 331.445 3767.871, 328.374 3749.750 C 327.563 3744.965, 328.554 3744.932, 337.083 3749.461 C 345.836 3754.108, 362.392 3759.482, 373.926 3761.418 C 379.111 3762.288, 388.865 3763, 395.604 3763 L 407.855 3763 407.270 3833.817 L 406.686 3904.635 419.093 3908.253 C 425.917 3910.243, 441.312 3914.689, 453.304 3918.134 L 475.107 3924.397 478.699 3922.463 L 482.290 3920.529 481.552 3730.764 L 480.813 3541 536.023 3541 L 591.234 3541 590.635 3610.250 C 590.305 3648.338, 589.915 3730.075, 589.768 3791.888 L 589.500 3904.276 594 3905.619 C 596.475 3906.358, 611.914 3910.884, 628.310 3915.677 L 658.120 3924.390 661.705 3922.460 L 665.290 3920.529 664.552 3730.764 L 663.813 3541 745.928 3541 L 828.044 3541 831.064 3545.750 C 838.556 3557.536, 840.047 3573.665, 834.720 3585.301 C 825.949 3604.458, 800.014 3618.524, 750.650 3630.895 L 735.801 3634.617 733.260 3639.095 L 730.719 3643.573 738.029 3662.036 C 746.317 3682.968, 761.397 3713.501, 771.017 3728.829 C 803.002 3779.791, 841.349 3809.704, 888.119 3820.176 C 897.301 3822.232, 901.098 3822.500, 921 3822.500 C 936.150 3822.500, 945.787 3822.047, 950.500 3821.113 C 960.953 3819.043, 974.385 3814.443, 982.700 3810.086 L 990.087 3806.215 989.564 3814.357 C 989.276 3818.836, 988.777 3840.978, 988.456 3863.563 L 987.872 3904.627 1022.186 3914.620 L 1056.500 3924.613 1059.853 3922.556 L 1063.206 3920.500 1062.520 3730.750 L 1061.834 3541 1257.917 3541 L 1454 3541 1454 3566.500 C 1454 3591.872, 1453.989 3592, 1451.865 3592 C 1448.076 3592, 1424.841 3597.096, 1412.683 3600.593 C 1391.982 3606.548, 1371.042 3615.487, 1355.479 3625.013 C 1351.896 3627.206, 1348.721 3629, 1348.423 3629 C 1348.126 3629, 1344.374 3626.330, 1340.088 3623.067 C 1301.395 3593.613, 1275.765 3583.748, 1242 3585.312 C 1207.690 3586.902, 1179.622 3602.363, 1161.326 3629.752 C 1154.531 3639.923, 1149.669 3651.250, 1146.196 3665 C 1143.734 3674.745, 1143.543 3677.046, 1143.542 3697 C 1143.541 3715.654, 1143.843 3719.890, 1145.822 3729 C 1158.102 3785.509, 1196.749 3842.829, 1253.159 3888.200 C 1269.777 3901.566, 1284.562 3911.458, 1307.094 3924.286 C 1311.577 3926.838, 1311.766 3926.860, 1314.979 3925.200 C 1318.204 3923.535, 1318.483 3922.824, 1328.609 3890.500 C 1334.295 3872.350, 1338.780 3857.023, 1338.577 3856.439 C 1338.374 3855.856, 1336.249 3854.802, 1333.854 3854.098 C 1324.578 3851.368, 1295.912 3839.494, 1284 3833.447 C 1245.541 3813.926, 1223.681 3791.112, 1215.810 3762.281 C 1212.972 3751.889, 1212.701 3728.002, 1215.301 3717.637 C 1219.797 3699.722, 1228.922 3683.940, 1241.667 3672.038 C 1247.574 3666.521, 1251.670 3663.753, 1259.423 3660.036 C 1264.965 3657.380, 1271.525 3654.733, 1274 3654.154 C 1286.817 3651.158, 1300.230 3651.853, 1312.627 3656.156 L 1318.755 3658.283 1313.407 3666.137 C 1306.488 3676.298, 1300.031 3689.924, 1295.135 3704.697 C 1291.098 3716.878, 1287.314 3731.689, 1288.070 3732.349 C 1288.307 3732.555, 1301.100 3741.351, 1316.500 3751.896 C 1342.206 3769.497, 1344.814 3771.044, 1348.333 3770.784 L 1352.166 3770.500 1357.062 3755.633 C 1370.503 3714.815, 1386.892 3693.978, 1417.200 3679.170 C 1427.007 3674.379, 1449.580 3666, 1452.681 3666 C 1453.955 3666, 1454.048 3681.101, 1453.415 3785.325 L 1452.692 3904.651 1463.596 3907.817 C 1469.593 3909.558, 1485.098 3914.054, 1498.051 3917.807 L 1521.603 3924.630 1524.880 3922.565 L 1528.157 3920.500 1527.450 3730.762 L 1526.744 3541.025 1563.973 3540.762 L 1601.201 3540.500 1604.172 3536.398 L 1607.143 3532.296 1592.329 3502.647 L 1577.515 3472.998 948.157 3473.249 L 318.800 3473.500 315.853 3477.568 L 312.906 3481.637 327.603 3511.318 L 342.301 3541 375.650 3541 L 409 3541 409 3607.490 L 409 3673.980 400.159 3678.420 C 376.053 3690.527, 351.505 3695.397, 326.185 3693.095 C 304.855 3691.156, 303.570 3690.481, 287.916 3672.979 L 280.332 3664.500 283.660 3660 C 288.601 3653.318, 296.643 3636.540, 298.997 3628 C 304.914 3606.536, 301.200 3579.361, 289.003 3554.864 C 276.932 3530.622, 253.324 3501.729, 234 3487.550 C 211.001 3470.674, 179.207 3463.274, 146.178 3467.110 M 883 3541.360 C 883 3541.558, 885.905 3547.762, 889.456 3555.146 C 907.953 3593.611, 910.961 3624.285, 898.432 3646.688 C 886.937 3667.243, 860.878 3683.444, 821.836 3694.309 L 810.173 3697.555 811.981 3702.690 C 819.206 3723.205, 834.748 3738.078, 856 3744.812 C 868.357 3748.728, 874.122 3749.474, 892 3749.471 C 915.771 3749.467, 929.389 3746.444, 948.062 3737.029 C 969.559 3726.189, 980.098 3715.637, 986.921 3698.120 L 989.500 3691.500 989.786 3616.250 L 990.072 3541 936.536 3541 C 907.091 3541, 883 3541.162, 883 3541.360 M 2851.007 3555.250 C 2862.963 3580.027, 2867.183 3595.440, 2867.369 3615 C 2867.467 3625.324, 2867.105 3628.718, 2865.286 3634.500 C 2859.254 3653.674, 2844.447 3668.925, 2820.629 3680.497 C 2808.889 3686.201, 2791.420 3692.514, 2779.173 3695.479 C 2772.069 3697.199, 2771.867 3697.332, 2772.501 3699.860 C 2772.861 3701.294, 2774.627 3705.625, 2776.426 3709.484 C 2789.553 3737.640, 2818.233 3751.442, 2860 3749.704 C 2897.511 3748.143, 2934.051 3728.946, 2945.534 3704.766 C 2951.960 3691.234, 2951.963 3691.191, 2951.983 3612.250 L 2952 3541 2898.066 3541 L 2844.131 3541 2851.007 3555.250 M 12 4116 L 12 4131 1640.500 4131 L 3269 4131 3269 4116 L 3269 4101 1640.500 4101 L 12 4101 12 4116 M 224 4237.591 C 193.345 4240.235, 170.720 4245.952, 147.500 4256.921 C 71.453 4292.846, 20.092 4381.076, 6.579 4499 C -0.258 4558.667, 4.295 4624.803, 19.005 4679.500 C 41.533 4763.266, 84.825 4823.337, 144.071 4853.036 C 173.196 4867.636, 201.963 4874, 238.827 4874 C 266.326 4874, 284.933 4871.254, 307.500 4863.865 C 386.554 4837.983, 442.982 4762.223, 464.931 4652.500 C 474.874 4602.791, 476.867 4544.734, 470.405 4493 C 460.066 4410.232, 430.175 4340.979, 385.569 4296.449 C 353.760 4264.694, 316.471 4246.033, 271.858 4239.544 C 261.320 4238.011, 232.678 4236.842, 224 4237.591 M 536 4556 L 536 4864 620 4864 L 704 4864 704 4556 L 704 4248 620 4248 L 536 4248 536 4556 M 784 4556 L 784 4864 930 4864 L 1076 4864 1076 4791 L 1076 4718 1013.500 4718 L 951 4718 951 4483 L 951 4248 867.500 4248 L 784 4248 784 4556 M 1355 4556 L 1355 4864 1438.500 4864 L 1522 4864 1522 4556 L 1522 4248 1438.500 4248 L 1355 4248 1355 4556 M 1602 4556 L 1602 4864 1682.500 4864 L 1763 4864 1762.998 4762.250 C 1762.997 4705.528, 1762.540 4652.092, 1761.967 4641.500 C 1760.987 4623.403, 1758.376 4589.950, 1754.006 4539.500 C 1751.822 4514.296, 1751.598 4508.645, 1752.873 4511 C 1753.320 4511.825, 1781.308 4591.587, 1815.070 4688.250 L 1876.454 4864 1956.727 4864 L 2037 4864 2037 4556 L 2037 4248 1956.500 4248 L 1876 4248 1876.013 4328.750 C 1876.031 4433.777, 1876.955 4454.684, 1884.534 4521.500 C 1892.781 4594.209, 1893.856 4603.914, 1894.452 4611 C 1894.836 4615.573, 1894.732 4617.915, 1894.186 4617 C 1893.694 4616.175, 1863.638 4532.815, 1827.395 4431.755 L 1761.500 4248.010 1681.750 4248.005 L 1602 4248 1602 4556 M 2117 4556.009 L 2117 4864.140 2208.250 4863.706 C 2285.263 4863.340, 2301.528 4863.014, 2312.500 4861.622 C 2366.753 4854.739, 2404.894 4841.094, 2440.445 4815.851 C 2451.494 4808.006, 2471.762 4788.592, 2480.902 4777.100 C 2522.430 4724.882, 2542.980 4651.509, 2542.996 4555.395 C 2542.998 4541.588, 2542.544 4524.488, 2541.987 4517.395 C 2532.997 4402.979, 2482.817 4319.998, 2397.500 4278.464 C 2367.667 4263.941, 2340.712 4256.185, 2299.500 4250.266 C 2290.359 4248.953, 2274.008 4248.618, 2202.750 4248.283 L 2117 4247.879 2117 4556.009 M 2605 4556 L 2605 4864 2689 4864 L 2773 4864 2773 4556 L 2773 4248 2689 4248 L 2605 4248 2605 4556 M 2957.477 4249.250 C 2956.941 4250.706, 2810 4862.713, 2810 4863.490 C 2810 4863.776, 2848.779 4863.896, 2896.176 4863.756 L 2982.353 4863.500 2988.629 4827.500 C 2992.080 4807.700, 2995.171 4790.038, 2995.498 4788.250 L 2996.091 4785 3051.466 4785 L 3106.841 4785 3107.409 4787.750 C 3108.103 4791.108, 3119 4862.019, 3119 4863.175 C 3119 4863.629, 3157.925 4864, 3205.500 4864 C 3274.931 4864, 3292 4863.748, 3292 4862.725 C 3292 4862.024, 3262.750 4723.613, 3227 4555.146 C 3191.250 4386.679, 3162 4248.652, 3162 4248.421 C 3162 4248.189, 3116.086 4248, 3059.969 4248 C 2979.256 4248, 2957.841 4248.261, 2957.477 4249.250 M 229.500 4394.388 C 221.381 4396.365, 214.921 4400.110, 208.517 4406.553 C 195.324 4419.826, 185.738 4443.234, 180.079 4476 C 174.554 4507.981, 172.638 4551.197, 175.024 4590 C 179.311 4659.735, 194.693 4701.341, 220.979 4714.305 C 227.131 4717.339, 228.040 4717.500, 238.979 4717.500 C 249.661 4717.500, 250.937 4717.288, 256.500 4714.589 C 274.117 4706.042, 288.130 4681.714, 295.476 4646.924 C 305.293 4600.425, 306.329 4528.319, 297.910 4477.500 C 289.605 4427.372, 271.927 4398.917, 246.040 4394.008 C 239.430 4392.754, 235.873 4392.836, 229.500 4394.388 M 3052.142 4431 C 3046.582 4476.302, 3045.347 4484.655, 3030.702 4576 L 3018.437 4652.500 3052.372 4652.763 C 3071.036 4652.908, 3086.501 4652.832, 3086.738 4652.595 C 3086.976 4652.358, 3082.414 4614.214, 3076.600 4567.832 C 3070.787 4521.449, 3064.187 4464.600, 3061.934 4441.500 C 3059.681 4418.400, 3057.527 4398.680, 3057.147 4397.677 C 3056.767 4396.674, 3054.515 4411.670, 3052.142 4431 M 2285 4558.028 L 2285 4714.289 2292.299 4713.737 C 2306.153 4712.689, 2321.072 4706.135, 2332.030 4696.284 C 2360.624 4670.574, 2375.684 4612.049, 2371.998 4540.959 C 2367.434 4452.954, 2341.233 4407.789, 2291.662 4402.480 L 2285 4401.767 2285 4558.028" stroke="none" fill="#2c2c2c" fill-rule="evenodd"/><path d="M 1162 2488.500 L 1162 3150 1600 3150 L 2038 3150 2038 2489.883 L 2038 1829.767 2035.750 1830.394 C 2029.332 1832.183, 1956.345 1846.460, 1936 1849.906 C 1678.750 1893.482, 1436.530 1887.972, 1189.902 1832.935 C 1175.274 1829.671, 1163.011 1827, 1162.652 1827 C 1162.294 1827, 1162 2124.675, 1162 2488.500" stroke="none" fill="#e41c24" fill-rule="evenodd"/></svg>